<?xml version="1.0" encoding="utf-8"?>
<!-- Generator: Adobe Illustrator 16.0.0, SVG Export Plug-In . SVG Version: 6.00 Build 0)  -->
<!DOCTYPE svg PUBLIC "-//W3C//DTD SVG 1.1//EN" "http://www.w3.org/Graphics/SVG/1.1/DTD/svg11.dtd">
<svg version="1.1" id="Layer_1" xmlns="http://www.w3.org/2000/svg" xmlns:xlink="http://www.w3.org/1999/xlink" x="0px" y="0px"
	 width="3840px" height="2160px" viewBox="0 0 3840 2160" enable-background="new 0 0 3840 2160" xml:space="preserve">
<g>
	<g>
		<path d="M408.019,973.901L391.932,848.92l124.982-16.086L533,957.815l-62.491,8.043l8.043,62.49l-249.963,32.172l-8.043-62.49
			l-62.491,8.043l-56.301-437.437l62.49-8.043l-8.043-62.49l249.964-32.172l8.043,62.49l62.491-8.043l16.086,124.981
			l-124.982,16.086l-16.086-124.981l-124.981,16.086l56.302,437.437L408.019,973.901z"/>
		<path d="M782.962,925.644l249.964-32.172l8.043,62.49l-374.945,48.258l-72.388-562.417l124.982-16.086L782.962,925.644z"/>
		<path d="M1391.784,720.232l-124.981,16.086l24.129,187.472l-124.982,16.086l-64.344-499.927l62.49-8.043l-8.043-62.49
			l249.964-32.172l8.043,62.49l62.491-8.043l64.344,499.927l-124.981,16.086L1391.784,720.232z M1258.759,673.827l124.981-16.086
			l-32.172-249.964l-124.981,16.086L1258.759,673.827z"/>
		<path d="M1758.685,609.482l32.172,249.963l-124.981,16.086l-72.388-562.417l312.455-40.215l8.043,62.49l62.49-8.043
			l24.129,187.473l-62.49,8.043l8.043,62.491L1758.685,609.482z M1750.642,546.991l124.982-16.086l-24.129-187.473l-124.981,16.086
			L1750.642,546.991z"/>
	</g>
	<g>
		<path d="M2073.726,607.957h-89.646v-44.823h224.115v44.823h-89.646v358.582h-44.822V607.957z"/>
		<path d="M2291.024,787.248v179.291h-44.823V563.134h44.823v179.291h134.468V563.134h44.823v403.404h-44.823V787.248H2291.024z"/>
		<path d="M2553.146,921.715h179.291v44.823h-224.114V563.134h224.114v44.823h-179.291v134.468h134.468v44.823h-134.468V921.715z"/>
		<path d="M3077.385,742.425v44.823h-134.468v179.291h-44.823V563.134h179.291v44.823h-134.468v134.468H3077.385z M3077.385,607.957
			h44.823v134.468h-44.823V607.957z"/>
		<path d="M3384.33,607.957v358.582h-44.823V832.07h-134.468v134.468h-44.823V607.957h44.823v179.291h134.468V607.957H3384.33z
			 M3205.039,607.957v-44.823h134.468v44.823H3205.039z"/>
		<path d="M3467.16,607.957h-44.823v-44.823h134.469v44.823h-44.823v313.759h44.823v44.823h-134.469v-44.823h44.823V607.957z"/>
		<path d="M3639.634,697.602v268.936h-44.823V563.134h44.823v89.646h44.822v44.823H3639.634z M3684.456,697.602h44.823v44.823
			h-44.823V697.602z M3774.102,742.425V563.134h44.823v403.404h-44.823V787.248h-44.822v-44.823H3774.102z"/>
	</g>
	<g>
		<path fill="#ED1C24" d="M1504.734,1343.008l-120.402-17.357l-26.035,180.605l-120.403-17.357l69.427-481.611l60.201,8.678
			l8.678-60.202l240.806,34.713l-8.678,60.202l60.202,8.678l-69.427,481.612l-120.403-17.356L1504.734,1343.008z M1393.011,1265.449
			l120.402,17.357L1548.126,1042l-120.402-17.356L1393.011,1265.449z"/>
		<path fill="#ED1C24" d="M1900.107,1584.36l-120.402-17.356l17.357-120.403l-60.201-8.678l60.749-421.411l120.403,17.357
			l-60.749,421.411l60.2,8.678L1900.107,1584.36z M1977.667,1472.636l-60.203-8.679l43.392-301.008l60.202,8.679L1977.667,1472.636z
			 M1977.667,1472.636l60.201,8.679l60.748-421.411l120.402,17.357l-60.748,421.411l-60.201-8.679l-17.356,120.403l-120.403-17.356
			L1977.667,1472.636z"/>
		<path fill="#ED1C24" d="M2528.158,1490.539l-120.402-17.356l-26.035,180.604l-120.403-17.356l69.427-481.612l60.201,8.679
			l8.679-60.202l240.806,34.714l-8.679,60.202l60.202,8.678l-69.427,481.612l-120.403-17.357L2528.158,1490.539z M2416.435,1412.981
			l120.402,17.356l34.713-240.806l-120.402-17.356L2416.435,1412.981z"/>
		<path fill="#ED1C24" d="M2846.521,1413.527l-60.201-8.678l34.714-240.806l120.403,17.356l-34.714,240.806l120.402,17.356
			l34.714-240.806l120.403,17.356l-34.714,240.807l-60.202-8.679l-8.678,60.202l-60.201-8.679l-34.714,240.806l-120.402-17.356
			l34.714-240.806l-60.202-8.679L2846.521,1413.527z"/>
		<path fill="#ED1C24" d="M3344.942,1792.641l-120.403-17.356l17.356-120.403l120.404,17.357L3344.942,1792.641z M3370.978,1612.036
			l-120.403-17.356l52.07-361.209l120.403,17.356L3370.978,1612.036z"/>
		<path fill="#ED1C24" d="M1152.353,1655.999l13.017-90.301l2227.446,321.098l-13.016,90.3L1152.353,1655.999z"/>
	</g>
</g>
</svg>
